<?xml version="1.0" standalone="no"?>
<!DOCTYPE svg PUBLIC "-//W3C//DTD SVG 20010904//EN"
 "http://www.w3.org/TR/2001/REC-SVG-20010904/DTD/svg10.dtd">
<svg version="1.0" xmlns="http://www.w3.org/2000/svg"
 width="1600.000000pt" height="1600.000000pt" viewBox="0 0 1600.000000 1600.000000"
 preserveAspectRatio="xMidYMid meet">
<metadata>
Created by potrace 1.14, written by Peter Selinger 2001-2017
</metadata>
<g transform="translate(0.000000,1600.000000) scale(0.100000,-0.100000)"
fill="#000000" stroke="none">
<path d="M7489 15996 c-2 -2 -49 -6 -104 -10 -55 -3 -111 -8 -125 -10 -14 -3
-59 -7 -102 -10 -42 -3 -82 -8 -90 -10 -7 -3 -40 -7 -73 -10 -33 -4 -69 -8
-80 -10 -11 -2 -45 -7 -75 -11 -30 -4 -62 -9 -71 -10 -9 -2 -34 -6 -55 -10
-112 -17 -212 -36 -426 -79 -7 -2 -24 -6 -38 -9 -33 -9 -258 -64 -335 -83 -33
-8 -89 -24 -125 -35 -36 -11 -78 -24 -95 -28 -143 -43 -512 -168 -560 -191
-11 -5 -78 -32 -148 -60 -128 -50 -150 -59 -302 -128 -96 -44 -464 -228 -555
-278 -170 -94 -487 -289 -647 -399 -94 -64 -425 -307 -458 -336 -11 -10 -81
-68 -155 -129 -120 -99 -187 -158 -318 -278 -241 -221 -620 -628 -797 -857
-16 -21 -42 -52 -56 -69 -64 -76 -252 -337 -364 -506 -246 -371 -444 -726
-614 -1100 -56 -122 -58 -127 -91 -205 -12 -27 -27 -63 -35 -80 -17 -36 -95
-240 -120 -310 -9 -27 -21 -59 -25 -70 -36 -86 -190 -591 -206 -675 -3 -14 -9
-38 -14 -55 -11 -36 -80 -339 -85 -375 -2 -14 -6 -36 -9 -50 -7 -30 -9 -44
-41 -233 -25 -154 -49 -331 -61 -452 -3 -38 -8 -77 -9 -86 -20 -106 -29 -1198
-12 -1374 4 -44 10 -98 12 -120 2 -22 7 -67 10 -100 6 -60 14 -131 20 -171 2
-12 7 -48 10 -80 4 -33 9 -68 11 -79 2 -11 7 -40 10 -65 3 -25 7 -52 9 -60 3
-8 7 -33 10 -55 9 -58 60 -312 90 -445 15 -63 28 -125 31 -137 12 -63 129
-458 174 -588 28 -82 53 -157 55 -165 2 -13 39 -111 65 -175 4 -11 18 -45 30
-75 11 -30 25 -64 30 -75 4 -11 32 -76 60 -145 59 -139 274 -581 344 -705 25
-44 57 -100 71 -125 14 -25 33 -59 43 -75 27 -47 196 -319 205 -330 4 -5 44
-64 89 -130 75 -110 280 -390 324 -442 11 -12 30 -37 44 -54 14 -18 65 -81
114 -139 279 -333 623 -677 931 -935 33 -27 69 -58 80 -68 77 -71 438 -344
589 -446 144 -97 416 -268 511 -322 22 -12 87 -49 145 -81 479 -270 1133 -540
1665 -688 61 -16 124 -35 142 -41 18 -5 40 -12 50 -14 10 -2 117 -26 238 -54
121 -27 237 -52 259 -55 21 -4 41 -8 45 -10 3 -2 30 -7 60 -10 29 -4 56 -8 60
-10 3 -3 40 -9 81 -15 41 -6 104 -15 140 -21 36 -5 90 -12 120 -15 30 -4 64
-8 76 -10 11 -1 52 -6 90 -10 38 -3 83 -8 100 -10 213 -28 1326 -29 1484 -1
14 3 61 8 105 11 44 3 87 7 95 10 8 2 40 6 71 10 31 3 65 7 75 9 11 2 44 7 74
11 30 4 62 9 71 10 9 2 34 6 55 10 112 17 212 36 426 79 7 2 24 6 38 9 25 7
224 56 335 83 97 24 538 161 590 183 11 5 43 17 70 26 69 24 273 103 310 120
17 7 46 20 65 28 199 86 319 140 445 205 50 25 108 54 130 65 163 80 554 313
774 460 174 116 537 385 597 442 6 5 33 28 60 50 275 227 604 545 844 815 36
40 70 78 75 84 6 6 57 67 113 136 57 69 111 134 121 145 89 102 380 516 513
730 166 266 390 682 495 920 17 39 43 97 58 130 15 33 49 116 77 185 27 69 53
134 58 145 33 69 187 532 226 680 2 6 5 19 8 30 50 180 67 247 72 280 4 22 10
47 14 55 4 8 10 34 14 58 3 24 8 46 10 50 2 4 7 27 11 51 3 24 10 54 16 67 5
14 8 28 7 32 -1 4 2 25 7 47 13 69 15 77 40 228 26 154 49 332 61 452 3 39 8
77 9 86 20 106 29 1198 12 1374 -4 44 -10 98 -12 120 -2 22 -7 67 -10 100 -6
60 -14 131 -20 171 -2 12 -7 48 -10 80 -4 33 -9 68 -11 79 -2 11 -7 43 -10 70
-4 28 -8 53 -10 56 -1 3 -6 28 -10 55 -5 38 -67 349 -89 444 -3 15 -43 180
-50 210 -33 133 -125 435 -176 578 -17 48 -32 94 -34 102 -3 13 -38 108 -65
175 -4 11 -18 45 -30 75 -11 30 -25 64 -30 75 -4 11 -33 79 -63 150 -31 72
-81 184 -113 250 -31 66 -58 122 -59 125 0 3 -16 34 -35 70 -19 36 -40 76 -46
90 -9 21 -119 222 -181 330 -22 39 -88 147 -137 225 -131 211 -405 596 -543
764 -297 363 -620 703 -904 951 -41 36 -76 68 -79 71 -5 5 -173 146 -241 202
-211 173 -602 446 -879 614 -68 41 -84 51 -265 153 -481 271 -1140 543 -1670
690 -60 16 -124 35 -142 41 -18 5 -40 12 -50 14 -10 2 -119 27 -243 55 -124
28 -241 54 -260 56 -19 2 -42 6 -50 9 -8 2 -28 6 -45 9 -16 3 -70 12 -120 20
-49 8 -108 17 -130 21 -22 3 -67 10 -100 15 -33 4 -91 11 -130 15 -38 3 -77 8
-85 10 -8 2 -53 7 -100 10 -47 4 -103 9 -125 12 -47 6 -1130 15 -1136 9z"/>
</g>
</svg>
